<mxfile host="app.diagrams.net" modified="2020-08-19T09:59:51.703Z" agent="5.0 (Windows NT 10.0; Win64; x64) AppleWebKit/537.36 (KHTML, like Gecko) Chrome/84.0.4147.125 Safari/537.36" etag="jMCL7mZW5nrAauiQ8yQh" version="13.6.2" type="github">
  <diagram id="J9Jc-CH_5xgtRLu-0UZM" name="第 1 页">
    <mxGraphModel dx="1585" dy="912" grid="1" gridSize="10" guides="1" tooltips="1" connect="1" arrows="1" fold="1" page="1" pageScale="1" pageWidth="827" pageHeight="1169" math="0" shadow="1">
      <root>
        <mxCell id="0" />
        <mxCell id="1" parent="0" />
        <mxCell id="6wFY-ZE3VeYy4Lx6V35n-23" value="" style="edgeStyle=orthogonalEdgeStyle;orthogonalLoop=1;jettySize=auto;html=1;spacing=4;spacingTop=1;strokeWidth=1;shadow=1;fillOpacity=100;strokeOpacity=100;arcSize=13;" edge="1" parent="1" source="6wFY-ZE3VeYy4Lx6V35n-20" target="6wFY-ZE3VeYy4Lx6V35n-22">
          <mxGeometry relative="1" as="geometry" />
        </mxCell>
        <mxCell id="6wFY-ZE3VeYy4Lx6V35n-20" value="loadBeanDefinitions" style="whiteSpace=wrap;html=1;fillColor=#ffffff;strokeColor=#000000;rounded=1;spacing=4;spacingTop=1;strokeWidth=1;shadow=1;fillOpacity=100;strokeOpacity=100;arcSize=13;" vertex="1" parent="1">
          <mxGeometry x="250" y="970" width="280" height="30" as="geometry" />
        </mxCell>
        <mxCell id="6wFY-ZE3VeYy4Lx6V35n-25" value="" style="edgeStyle=orthogonalEdgeStyle;orthogonalLoop=1;jettySize=auto;html=1;spacing=4;spacingTop=1;strokeWidth=1;shadow=1;fillOpacity=100;strokeOpacity=100;arcSize=13;" edge="1" parent="1" source="6wFY-ZE3VeYy4Lx6V35n-22" target="6wFY-ZE3VeYy4Lx6V35n-24">
          <mxGeometry relative="1" as="geometry" />
        </mxCell>
        <mxCell id="6wFY-ZE3VeYy4Lx6V35n-22" value="loadBeanDefinitionsForConfigurationClass" style="whiteSpace=wrap;html=1;rounded=1;spacing=4;spacingTop=1;strokeWidth=1;shadow=1;fillOpacity=100;strokeOpacity=100;arcSize=13;" vertex="1" parent="1">
          <mxGeometry x="250" y="1030" width="280" height="30" as="geometry" />
        </mxCell>
        <mxCell id="6wFY-ZE3VeYy4Lx6V35n-27" value="" style="edgeStyle=orthogonalEdgeStyle;orthogonalLoop=1;jettySize=auto;html=1;spacing=4;spacingTop=1;strokeWidth=1;shadow=1;fillOpacity=100;strokeOpacity=100;arcSize=13;" edge="1" parent="1" source="6wFY-ZE3VeYy4Lx6V35n-24" target="6wFY-ZE3VeYy4Lx6V35n-26">
          <mxGeometry relative="1" as="geometry" />
        </mxCell>
        <mxCell id="6wFY-ZE3VeYy4Lx6V35n-24" value="&lt;div&gt;判断当前的&amp;nbsp;importedBy 集合 不为空&lt;/div&gt;&lt;div&gt;configClass.isImported()&lt;/div&gt;" style="whiteSpace=wrap;html=1;fillColor=#ffe6cc;strokeColor=#d79b00;rounded=1;spacing=4;spacingTop=1;strokeWidth=1;shadow=1;fillOpacity=100;strokeOpacity=100;arcSize=13;" vertex="1" parent="1">
          <mxGeometry x="250" y="1080" width="280" height="30" as="geometry" />
        </mxCell>
        <mxCell id="6wFY-ZE3VeYy4Lx6V35n-201" value="" style="edgeStyle=orthogonalEdgeStyle;orthogonalLoop=1;jettySize=auto;html=1;spacing=4;spacingTop=1;strokeWidth=1;shadow=1;fillOpacity=100;strokeOpacity=100;arcSize=13;" edge="1" parent="1" source="6wFY-ZE3VeYy4Lx6V35n-26" target="6wFY-ZE3VeYy4Lx6V35n-200">
          <mxGeometry relative="1" as="geometry" />
        </mxCell>
        <mxCell id="6wFY-ZE3VeYy4Lx6V35n-26" value="registerBeanDefinitionForImportedConfigurationClass" style="whiteSpace=wrap;html=1;rounded=1;spacing=4;spacingTop=1;strokeWidth=1;shadow=1;fillOpacity=100;strokeOpacity=100;arcSize=13;" vertex="1" parent="1">
          <mxGeometry x="240" y="1139" width="300" height="30" as="geometry" />
        </mxCell>
        <mxCell id="6wFY-ZE3VeYy4Lx6V35n-32" value="" style="edgeStyle=orthogonalEdgeStyle;orthogonalLoop=1;jettySize=auto;html=1;spacing=4;spacingTop=1;strokeWidth=1;shadow=1;fillOpacity=100;strokeOpacity=100;arcSize=13;" edge="1" parent="1" source="6wFY-ZE3VeYy4Lx6V35n-29" target="6wFY-ZE3VeYy4Lx6V35n-33">
          <mxGeometry relative="1" as="geometry">
            <mxPoint x="870.0285714285715" y="620" as="targetPoint" />
          </mxGeometry>
        </mxCell>
        <mxCell id="6wFY-ZE3VeYy4Lx6V35n-29" value="parse" style="whiteSpace=wrap;html=1;rounded=1;spacing=4;spacingTop=1;strokeWidth=1;shadow=1;fillOpacity=100;strokeOpacity=100;arcSize=13;" vertex="1" parent="1">
          <mxGeometry x="730" y="560" width="280" height="30" as="geometry" />
        </mxCell>
        <mxCell id="6wFY-ZE3VeYy4Lx6V35n-36" value="" style="edgeStyle=orthogonalEdgeStyle;orthogonalLoop=1;jettySize=auto;html=1;spacing=4;spacingTop=1;strokeWidth=1;shadow=1;fillOpacity=100;strokeOpacity=100;arcSize=13;" edge="1" parent="1" source="6wFY-ZE3VeYy4Lx6V35n-33" target="6wFY-ZE3VeYy4Lx6V35n-35">
          <mxGeometry relative="1" as="geometry" />
        </mxCell>
        <mxCell id="6wFY-ZE3VeYy4Lx6V35n-193" style="edgeStyle=orthogonalEdgeStyle;orthogonalLoop=1;jettySize=auto;html=1;entryX=1;entryY=0.5;entryDx=0;entryDy=0;exitX=1;exitY=0.5;exitDx=0;exitDy=0;spacing=4;spacingTop=1;strokeWidth=1;shadow=1;fillOpacity=100;strokeOpacity=100;arcSize=13;" edge="1" parent="1" source="6wFY-ZE3VeYy4Lx6V35n-33" target="6wFY-ZE3VeYy4Lx6V35n-194">
          <mxGeometry relative="1" as="geometry">
            <mxPoint x="1040" y="1119.9999999999998" as="targetPoint" />
            <Array as="points">
              <mxPoint x="1050" y="635" />
              <mxPoint x="1050" y="1115" />
            </Array>
          </mxGeometry>
        </mxCell>
        <mxCell id="6wFY-ZE3VeYy4Lx6V35n-33" value="processConfigurationClass" style="whiteSpace=wrap;html=1;rounded=1;spacing=4;spacingTop=1;strokeWidth=1;shadow=1;fillOpacity=100;strokeOpacity=100;arcSize=13;" vertex="1" parent="1">
          <mxGeometry x="730" y="620" width="280" height="30" as="geometry" />
        </mxCell>
        <mxCell id="6wFY-ZE3VeYy4Lx6V35n-38" value="" style="edgeStyle=orthogonalEdgeStyle;orthogonalLoop=1;jettySize=auto;html=1;spacing=4;spacingTop=1;strokeWidth=1;shadow=1;fillOpacity=100;strokeOpacity=100;arcSize=13;" edge="1" parent="1" source="6wFY-ZE3VeYy4Lx6V35n-35" target="6wFY-ZE3VeYy4Lx6V35n-37">
          <mxGeometry relative="1" as="geometry" />
        </mxCell>
        <mxCell id="6wFY-ZE3VeYy4Lx6V35n-35" value="doProcessConfigurationClass" style="whiteSpace=wrap;html=1;rounded=1;spacing=4;spacingTop=1;strokeWidth=1;shadow=1;fillOpacity=100;strokeOpacity=100;arcSize=13;" vertex="1" parent="1">
          <mxGeometry x="730" y="668.75" width="280" height="30" as="geometry" />
        </mxCell>
        <mxCell id="6wFY-ZE3VeYy4Lx6V35n-40" value="" style="edgeStyle=orthogonalEdgeStyle;orthogonalLoop=1;jettySize=auto;html=1;spacing=4;spacingTop=1;strokeWidth=1;shadow=1;fillOpacity=100;strokeOpacity=100;arcSize=13;" edge="1" parent="1" source="6wFY-ZE3VeYy4Lx6V35n-37" target="6wFY-ZE3VeYy4Lx6V35n-39">
          <mxGeometry relative="1" as="geometry" />
        </mxCell>
        <mxCell id="6wFY-ZE3VeYy4Lx6V35n-37" value="&lt;div&gt;根据：ImportContext&lt;/div&gt;&lt;div&gt;@ComponentScan -- 扫描package&lt;/div&gt;" style="whiteSpace=wrap;html=1;rounded=1;spacing=4;spacingTop=1;strokeWidth=1;shadow=1;fillOpacity=100;strokeOpacity=100;arcSize=13;" vertex="1" parent="1">
          <mxGeometry x="730" y="727.5" width="280" height="30" as="geometry" />
        </mxCell>
        <mxCell id="6wFY-ZE3VeYy4Lx6V35n-142" value="" style="edgeStyle=orthogonalEdgeStyle;orthogonalLoop=1;jettySize=auto;html=1;spacing=4;spacingTop=1;strokeWidth=1;shadow=1;fillOpacity=100;strokeOpacity=100;arcSize=13;" edge="1" parent="1" source="6wFY-ZE3VeYy4Lx6V35n-39" target="6wFY-ZE3VeYy4Lx6V35n-141">
          <mxGeometry relative="1" as="geometry" />
        </mxCell>
        <mxCell id="6wFY-ZE3VeYy4Lx6V35n-39" value="开始执行扫描，并且符合条件的Bean进行处理" style="whiteSpace=wrap;html=1;fillColor=#ffe6cc;strokeColor=#d79b00;rounded=1;spacing=4;spacingTop=1;strokeWidth=1;shadow=1;fillOpacity=100;strokeOpacity=100;arcSize=13;" vertex="1" parent="1">
          <mxGeometry x="730" y="785" width="280" height="30" as="geometry" />
        </mxCell>
        <mxCell id="6wFY-ZE3VeYy4Lx6V35n-46" value="" style="edgeStyle=orthogonalEdgeStyle;orthogonalLoop=1;jettySize=auto;html=1;spacing=4;spacingTop=1;strokeWidth=1;shadow=1;fillOpacity=100;strokeOpacity=100;arcSize=13;" edge="1" parent="1" source="6wFY-ZE3VeYy4Lx6V35n-41" target="6wFY-ZE3VeYy4Lx6V35n-45">
          <mxGeometry relative="1" as="geometry" />
        </mxCell>
        <mxCell id="6wFY-ZE3VeYy4Lx6V35n-41" value="&lt;div&gt;检查是不是&lt;/div&gt;&lt;div&gt;@Configuration...等注解&lt;/div&gt;&lt;div&gt;checkConfigurationClassCandidate&lt;/div&gt;" style="whiteSpace=wrap;html=1;align=center;rounded=1;spacing=4;spacingTop=1;strokeWidth=1;shadow=1;fillOpacity=100;strokeOpacity=100;arcSize=13;" vertex="1" parent="1">
          <mxGeometry x="730" y="965" width="280" height="45" as="geometry" />
        </mxCell>
        <mxCell id="6wFY-ZE3VeYy4Lx6V35n-150" value="" style="edgeStyle=orthogonalEdgeStyle;orthogonalLoop=1;jettySize=auto;html=1;entryX=0;entryY=0.5;entryDx=0;entryDy=0;spacing=4;spacingTop=1;strokeWidth=1;shadow=1;fillOpacity=100;strokeOpacity=100;arcSize=13;" edge="1" parent="1" source="6wFY-ZE3VeYy4Lx6V35n-45" target="6wFY-ZE3VeYy4Lx6V35n-152">
          <mxGeometry relative="1" as="geometry">
            <mxPoint x="1080" y="515" as="targetPoint" />
          </mxGeometry>
        </mxCell>
        <mxCell id="6wFY-ZE3VeYy4Lx6V35n-191" style="edgeStyle=orthogonalEdgeStyle;orthogonalLoop=1;jettySize=auto;html=1;entryX=0;entryY=0.5;entryDx=0;entryDy=0;exitX=0;exitY=0.5;exitDx=0;exitDy=0;spacing=4;spacingTop=1;strokeWidth=1;shadow=1;fillOpacity=100;strokeOpacity=100;arcSize=13;" edge="1" parent="1" source="6wFY-ZE3VeYy4Lx6V35n-45" target="6wFY-ZE3VeYy4Lx6V35n-33">
          <mxGeometry relative="1" as="geometry" />
        </mxCell>
        <mxCell id="6wFY-ZE3VeYy4Lx6V35n-45" value="parse" style="whiteSpace=wrap;html=1;rounded=1;spacing=4;spacingTop=1;strokeWidth=1;shadow=1;fillOpacity=100;strokeOpacity=100;arcSize=13;" vertex="1" parent="1">
          <mxGeometry x="730" y="1040" width="280" height="30" as="geometry" />
        </mxCell>
        <mxCell id="6wFY-ZE3VeYy4Lx6V35n-82" value="invokeBeanFactoryPostProcessors" style="whiteSpace=wrap;html=1;rounded=1;spacing=4;spacingTop=1;strokeWidth=1;shadow=1;fillOpacity=100;strokeOpacity=100;arcSize=13;" vertex="1" parent="1">
          <mxGeometry x="250.0000000000001" y="618.75" width="280" height="30" as="geometry" />
        </mxCell>
        <mxCell id="6wFY-ZE3VeYy4Lx6V35n-83" value="invokeBeanFactoryPostProcessors" style="whiteSpace=wrap;html=1;rounded=1;spacing=4;spacingTop=1;strokeWidth=1;shadow=1;fillOpacity=100;strokeOpacity=100;arcSize=13;" vertex="1" parent="1">
          <mxGeometry x="250.0000000000001" y="675" width="280" height="30" as="geometry" />
        </mxCell>
        <mxCell id="6wFY-ZE3VeYy4Lx6V35n-84" value="" style="edgeStyle=orthogonalEdgeStyle;orthogonalLoop=1;jettySize=auto;html=1;spacing=4;spacingTop=1;strokeWidth=1;shadow=1;fillOpacity=100;strokeOpacity=100;arcSize=13;" edge="1" parent="1" source="6wFY-ZE3VeYy4Lx6V35n-82" target="6wFY-ZE3VeYy4Lx6V35n-83">
          <mxGeometry relative="1" as="geometry" />
        </mxCell>
        <mxCell id="6wFY-ZE3VeYy4Lx6V35n-85" value="invokeBeanDefinitionRegistryPostProcessors" style="whiteSpace=wrap;html=1;rounded=1;spacing=4;spacingTop=1;strokeWidth=1;shadow=1;fillOpacity=100;strokeOpacity=100;arcSize=13;" vertex="1" parent="1">
          <mxGeometry x="250.0000000000001" y="731.25" width="280" height="30" as="geometry" />
        </mxCell>
        <mxCell id="6wFY-ZE3VeYy4Lx6V35n-86" value="" style="edgeStyle=orthogonalEdgeStyle;orthogonalLoop=1;jettySize=auto;html=1;spacing=4;spacingTop=1;strokeWidth=1;shadow=1;fillOpacity=100;strokeOpacity=100;arcSize=13;" edge="1" parent="1" source="6wFY-ZE3VeYy4Lx6V35n-83" target="6wFY-ZE3VeYy4Lx6V35n-85">
          <mxGeometry relative="1" as="geometry" />
        </mxCell>
        <mxCell id="6wFY-ZE3VeYy4Lx6V35n-87" value="postProcessBeanDefinitionRegistry" style="whiteSpace=wrap;html=1;rounded=1;spacing=4;spacingTop=1;strokeWidth=1;shadow=1;fillOpacity=100;strokeOpacity=100;arcSize=13;" vertex="1" parent="1">
          <mxGeometry x="250.0000000000001" y="792.2399999999998" width="280" height="30" as="geometry" />
        </mxCell>
        <mxCell id="6wFY-ZE3VeYy4Lx6V35n-88" value="" style="edgeStyle=orthogonalEdgeStyle;orthogonalLoop=1;jettySize=auto;html=1;spacing=4;spacingTop=1;strokeWidth=1;shadow=1;fillOpacity=100;strokeOpacity=100;arcSize=13;" edge="1" parent="1" source="6wFY-ZE3VeYy4Lx6V35n-85" target="6wFY-ZE3VeYy4Lx6V35n-87">
          <mxGeometry relative="1" as="geometry" />
        </mxCell>
        <mxCell id="6wFY-ZE3VeYy4Lx6V35n-89" value="processConfigBeanDefinitions" style="whiteSpace=wrap;html=1;rounded=1;spacing=4;spacingTop=1;strokeWidth=1;shadow=1;fillOpacity=100;strokeOpacity=100;arcSize=13;" vertex="1" parent="1">
          <mxGeometry x="250.0000000000001" y="852.2399999999998" width="280" height="30" as="geometry" />
        </mxCell>
        <mxCell id="6wFY-ZE3VeYy4Lx6V35n-90" value="" style="edgeStyle=orthogonalEdgeStyle;orthogonalLoop=1;jettySize=auto;html=1;spacing=4;spacingTop=1;strokeWidth=1;shadow=1;fillOpacity=100;strokeOpacity=100;arcSize=13;" edge="1" parent="1" source="6wFY-ZE3VeYy4Lx6V35n-87" target="6wFY-ZE3VeYy4Lx6V35n-89">
          <mxGeometry relative="1" as="geometry" />
        </mxCell>
        <mxCell id="6wFY-ZE3VeYy4Lx6V35n-138" style="edgeStyle=orthogonalEdgeStyle;orthogonalLoop=1;jettySize=auto;html=1;entryX=0;entryY=0.5;entryDx=0;entryDy=0;spacing=4;spacingTop=1;strokeWidth=1;shadow=1;fillOpacity=100;strokeOpacity=100;arcSize=13;" edge="1" parent="1" source="6wFY-ZE3VeYy4Lx6V35n-91" target="6wFY-ZE3VeYy4Lx6V35n-29">
          <mxGeometry relative="1" as="geometry" />
        </mxCell>
        <mxCell id="6wFY-ZE3VeYy4Lx6V35n-199" style="edgeStyle=orthogonalEdgeStyle;orthogonalLoop=1;jettySize=auto;html=1;spacing=4;spacingTop=1;strokeWidth=1;shadow=1;fillOpacity=100;strokeOpacity=100;arcSize=13;" edge="1" parent="1" source="6wFY-ZE3VeYy4Lx6V35n-91" target="6wFY-ZE3VeYy4Lx6V35n-20">
          <mxGeometry relative="1" as="geometry" />
        </mxCell>
        <mxCell id="6wFY-ZE3VeYy4Lx6V35n-91" value="parse" style="whiteSpace=wrap;html=1;rounded=1;spacing=4;spacingTop=1;strokeWidth=1;shadow=1;fillOpacity=100;strokeOpacity=100;arcSize=13;" vertex="1" parent="1">
          <mxGeometry x="250.0000000000001" y="912.5" width="280" height="30" as="geometry" />
        </mxCell>
        <mxCell id="6wFY-ZE3VeYy4Lx6V35n-92" value="" style="edgeStyle=orthogonalEdgeStyle;orthogonalLoop=1;jettySize=auto;html=1;spacing=4;spacingTop=1;strokeWidth=1;shadow=1;fillOpacity=100;strokeOpacity=100;arcSize=13;" edge="1" parent="1" source="6wFY-ZE3VeYy4Lx6V35n-89" target="6wFY-ZE3VeYy4Lx6V35n-91">
          <mxGeometry relative="1" as="geometry" />
        </mxCell>
        <mxCell id="6wFY-ZE3VeYy4Lx6V35n-2" value="AnnotationConfigApplicationContext" style="whiteSpace=wrap;html=1;rounded=1;spacing=4;spacingTop=1;strokeWidth=1;shadow=1;fillOpacity=100;strokeOpacity=100;arcSize=13;" vertex="1" parent="1">
          <mxGeometry x="250.0000000000001" y="511.2499999999999" width="280" height="30" as="geometry" />
        </mxCell>
        <mxCell id="6wFY-ZE3VeYy4Lx6V35n-137" style="edgeStyle=orthogonalEdgeStyle;orthogonalLoop=1;jettySize=auto;html=1;spacing=4;spacingTop=1;strokeWidth=1;shadow=1;fillOpacity=100;strokeOpacity=100;arcSize=13;" edge="1" parent="1" source="6wFY-ZE3VeYy4Lx6V35n-6" target="6wFY-ZE3VeYy4Lx6V35n-82">
          <mxGeometry relative="1" as="geometry" />
        </mxCell>
        <mxCell id="6wFY-ZE3VeYy4Lx6V35n-6" value="refresh" style="whiteSpace=wrap;html=1;rounded=1;spacing=4;spacingTop=1;strokeWidth=1;shadow=1;fillOpacity=100;strokeOpacity=100;arcSize=13;" vertex="1" parent="1">
          <mxGeometry x="250.0000000000001" y="561.2499999999999" width="280" height="30" as="geometry" />
        </mxCell>
        <mxCell id="6wFY-ZE3VeYy4Lx6V35n-7" value="" style="edgeStyle=orthogonalEdgeStyle;orthogonalLoop=1;jettySize=auto;html=1;spacing=4;spacingTop=1;strokeWidth=1;shadow=1;fillOpacity=100;strokeOpacity=100;arcSize=13;" edge="1" parent="1" source="6wFY-ZE3VeYy4Lx6V35n-2" target="6wFY-ZE3VeYy4Lx6V35n-6">
          <mxGeometry relative="1" as="geometry" />
        </mxCell>
        <mxCell id="6wFY-ZE3VeYy4Lx6V35n-146" value="" style="edgeStyle=orthogonalEdgeStyle;orthogonalLoop=1;jettySize=auto;html=1;spacing=4;spacingTop=1;strokeWidth=1;shadow=1;fillOpacity=100;strokeOpacity=100;arcSize=13;" edge="1" parent="1" source="6wFY-ZE3VeYy4Lx6V35n-141" target="6wFY-ZE3VeYy4Lx6V35n-145">
          <mxGeometry relative="1" as="geometry" />
        </mxCell>
        <mxCell id="6wFY-ZE3VeYy4Lx6V35n-141" value="parse -- 执行解析&amp;nbsp;" style="whiteSpace=wrap;html=1;rounded=1;spacing=4;spacingTop=1;strokeWidth=1;shadow=1;fillOpacity=100;strokeOpacity=100;arcSize=13;" vertex="1" parent="1">
          <mxGeometry x="730" y="837.5" width="280" height="30" as="geometry" />
        </mxCell>
        <mxCell id="6wFY-ZE3VeYy4Lx6V35n-147" style="edgeStyle=orthogonalEdgeStyle;orthogonalLoop=1;jettySize=auto;html=1;spacing=4;spacingTop=1;strokeWidth=1;shadow=1;fillOpacity=100;strokeOpacity=100;arcSize=13;" edge="1" parent="1" source="6wFY-ZE3VeYy4Lx6V35n-145" target="6wFY-ZE3VeYy4Lx6V35n-41">
          <mxGeometry relative="1" as="geometry" />
        </mxCell>
        <mxCell id="6wFY-ZE3VeYy4Lx6V35n-145" value="ImportConfiguration -- 将其放入到容器当中" style="whiteSpace=wrap;html=1;fillColor=#ffe6cc;strokeColor=#d79b00;rounded=1;spacing=4;spacingTop=1;strokeWidth=1;shadow=1;fillOpacity=100;strokeOpacity=100;arcSize=13;" vertex="1" parent="1">
          <mxGeometry x="730" y="900" width="280" height="30" as="geometry" />
        </mxCell>
        <mxCell id="6wFY-ZE3VeYy4Lx6V35n-155" value="" style="edgeStyle=orthogonalEdgeStyle;orthogonalLoop=1;jettySize=auto;html=1;spacing=4;spacingTop=1;strokeWidth=1;shadow=1;fillOpacity=100;strokeOpacity=100;arcSize=13;" edge="1" parent="1" source="6wFY-ZE3VeYy4Lx6V35n-152" target="6wFY-ZE3VeYy4Lx6V35n-154">
          <mxGeometry relative="1" as="geometry" />
        </mxCell>
        <mxCell id="6wFY-ZE3VeYy4Lx6V35n-192" style="edgeStyle=orthogonalEdgeStyle;orthogonalLoop=1;jettySize=auto;html=1;entryX=1;entryY=0.5;entryDx=0;entryDy=0;spacing=4;spacingTop=1;strokeWidth=1;shadow=1;fillOpacity=100;strokeOpacity=100;arcSize=13;" edge="1" parent="1" source="6wFY-ZE3VeYy4Lx6V35n-152" target="6wFY-ZE3VeYy4Lx6V35n-188">
          <mxGeometry relative="1" as="geometry">
            <Array as="points">
              <mxPoint x="1490" y="724.64" />
              <mxPoint x="1490" y="1054.64" />
            </Array>
          </mxGeometry>
        </mxCell>
        <mxCell id="6wFY-ZE3VeYy4Lx6V35n-152" value="processConfigurationClass" style="whiteSpace=wrap;html=1;rounded=1;spacing=4;spacingTop=1;strokeWidth=1;shadow=1;fillOpacity=100;strokeOpacity=100;arcSize=13;" vertex="1" parent="1">
          <mxGeometry x="1180" y="709.64" width="280" height="30" as="geometry" />
        </mxCell>
        <mxCell id="6wFY-ZE3VeYy4Lx6V35n-157" value="" style="edgeStyle=orthogonalEdgeStyle;orthogonalLoop=1;jettySize=auto;html=1;entryX=0.5;entryY=0;entryDx=0;entryDy=0;spacing=4;spacingTop=1;strokeWidth=1;shadow=1;fillOpacity=100;strokeOpacity=100;arcSize=13;" edge="1" parent="1" source="6wFY-ZE3VeYy4Lx6V35n-154" target="6wFY-ZE3VeYy4Lx6V35n-158">
          <mxGeometry relative="1" as="geometry">
            <mxPoint x="1320" y="837.7599999999998" as="targetPoint" />
          </mxGeometry>
        </mxCell>
        <mxCell id="6wFY-ZE3VeYy4Lx6V35n-154" value="doProcessConfigurationClass" style="whiteSpace=wrap;html=1;rounded=1;spacing=4;spacingTop=1;strokeWidth=1;shadow=1;fillOpacity=100;strokeOpacity=100;arcSize=13;" vertex="1" parent="1">
          <mxGeometry x="1180" y="776.51" width="280" height="30" as="geometry" />
        </mxCell>
        <mxCell id="6wFY-ZE3VeYy4Lx6V35n-161" value="" style="edgeStyle=orthogonalEdgeStyle;orthogonalLoop=1;jettySize=auto;html=1;spacing=4;spacingTop=1;strokeWidth=1;shadow=1;fillOpacity=100;strokeOpacity=100;arcSize=13;" edge="1" parent="1" source="6wFY-ZE3VeYy4Lx6V35n-158" target="6wFY-ZE3VeYy4Lx6V35n-160">
          <mxGeometry relative="1" as="geometry" />
        </mxCell>
        <mxCell id="6wFY-ZE3VeYy4Lx6V35n-168" value="" style="edgeStyle=orthogonalEdgeStyle;orthogonalLoop=1;jettySize=auto;html=1;entryX=0;entryY=0.5;entryDx=0;entryDy=0;exitX=1;exitY=0.25;exitDx=0;exitDy=0;spacing=4;spacingTop=1;strokeWidth=1;shadow=1;fillOpacity=100;strokeOpacity=100;arcSize=13;" edge="1" parent="1" source="6wFY-ZE3VeYy4Lx6V35n-158" target="6wFY-ZE3VeYy4Lx6V35n-170">
          <mxGeometry relative="1" as="geometry">
            <mxPoint x="1410" y="510" as="targetPoint" />
          </mxGeometry>
        </mxCell>
        <mxCell id="6wFY-ZE3VeYy4Lx6V35n-158" value="processImports" style="whiteSpace=wrap;html=1;rounded=1;spacing=4;spacingTop=1;strokeWidth=1;shadow=1;fillOpacity=100;strokeOpacity=100;arcSize=13;" vertex="1" parent="1">
          <mxGeometry x="1180" y="837.76" width="280" height="30" as="geometry" />
        </mxCell>
        <mxCell id="6wFY-ZE3VeYy4Lx6V35n-163" value="" style="edgeStyle=orthogonalEdgeStyle;orthogonalLoop=1;jettySize=auto;html=1;spacing=4;spacingTop=1;strokeWidth=1;shadow=1;fillOpacity=100;strokeOpacity=100;arcSize=13;" edge="1" parent="1" source="6wFY-ZE3VeYy4Lx6V35n-160" target="6wFY-ZE3VeYy4Lx6V35n-162">
          <mxGeometry relative="1" as="geometry" />
        </mxCell>
        <mxCell id="6wFY-ZE3VeYy4Lx6V35n-160" value="getImports" style="whiteSpace=wrap;html=1;rounded=1;spacing=4;spacingTop=1;strokeWidth=1;shadow=1;fillOpacity=100;strokeOpacity=100;arcSize=13;" vertex="1" parent="1">
          <mxGeometry x="1180" y="905.26" width="280" height="30" as="geometry" />
        </mxCell>
        <mxCell id="6wFY-ZE3VeYy4Lx6V35n-164" style="edgeStyle=orthogonalEdgeStyle;orthogonalLoop=1;jettySize=auto;html=1;entryX=0;entryY=0.5;entryDx=0;entryDy=0;exitX=0;exitY=0.5;exitDx=0;exitDy=0;spacing=4;spacingTop=1;strokeWidth=1;shadow=1;fillOpacity=100;strokeOpacity=100;arcSize=13;" edge="1" parent="1" source="6wFY-ZE3VeYy4Lx6V35n-162" target="6wFY-ZE3VeYy4Lx6V35n-158">
          <mxGeometry relative="1" as="geometry" />
        </mxCell>
        <mxCell id="6wFY-ZE3VeYy4Lx6V35n-162" value="获取到：ImportBean" style="whiteSpace=wrap;html=1;fillColor=#ffe6cc;strokeColor=#d79b00;rounded=1;spacing=4;spacingTop=1;strokeWidth=1;shadow=1;fillOpacity=100;strokeOpacity=100;arcSize=13;" vertex="1" parent="1">
          <mxGeometry x="1180" y="967.76" width="280" height="30" as="geometry" />
        </mxCell>
        <mxCell id="6wFY-ZE3VeYy4Lx6V35n-174" value="" style="edgeStyle=orthogonalEdgeStyle;orthogonalLoop=1;jettySize=auto;html=1;spacing=4;spacingTop=1;strokeWidth=1;shadow=1;fillOpacity=100;strokeOpacity=100;arcSize=13;" edge="1" parent="1" source="6wFY-ZE3VeYy4Lx6V35n-167" target="6wFY-ZE3VeYy4Lx6V35n-173">
          <mxGeometry relative="1" as="geometry" />
        </mxCell>
        <mxCell id="6wFY-ZE3VeYy4Lx6V35n-183" style="edgeStyle=orthogonalEdgeStyle;orthogonalLoop=1;jettySize=auto;html=1;entryX=1;entryY=0.5;entryDx=0;entryDy=0;spacing=4;spacingTop=1;strokeWidth=1;shadow=1;fillOpacity=100;strokeOpacity=100;arcSize=13;" edge="1" parent="1" source="6wFY-ZE3VeYy4Lx6V35n-167" target="6wFY-ZE3VeYy4Lx6V35n-181">
          <mxGeometry relative="1" as="geometry">
            <mxPoint x="2080" y="1030" as="targetPoint" />
            <Array as="points">
              <mxPoint x="1920" y="816" />
              <mxPoint x="1920" y="1025" />
            </Array>
          </mxGeometry>
        </mxCell>
        <mxCell id="6wFY-ZE3VeYy4Lx6V35n-167" value="processConfigurationClass" style="whiteSpace=wrap;html=1;rounded=1;spacing=4;spacingTop=1;strokeWidth=1;shadow=1;fillOpacity=100;strokeOpacity=100;arcSize=13;" vertex="1" parent="1">
          <mxGeometry x="1610" y="801.25" width="280" height="30" as="geometry" />
        </mxCell>
        <mxCell id="6wFY-ZE3VeYy4Lx6V35n-172" style="edgeStyle=orthogonalEdgeStyle;orthogonalLoop=1;jettySize=auto;html=1;spacing=4;spacingTop=1;strokeWidth=1;shadow=1;fillOpacity=100;strokeOpacity=100;arcSize=13;" edge="1" parent="1" source="6wFY-ZE3VeYy4Lx6V35n-170" target="6wFY-ZE3VeYy4Lx6V35n-167">
          <mxGeometry relative="1" as="geometry" />
        </mxCell>
        <mxCell id="6wFY-ZE3VeYy4Lx6V35n-170" value="&lt;div&gt;asConfigClass&lt;/div&gt;&lt;div&gt;会重新创建一个ConfigurationClass&lt;br&gt;将 importConfiguration 放入到集合当中&lt;/div&gt;" style="whiteSpace=wrap;html=1;rounded=1;spacing=4;spacingTop=1;strokeWidth=1;fillColor=#ffe6cc;strokeColor=#d79b00;shadow=1;fillOpacity=100;strokeOpacity=100;arcSize=13;" vertex="1" parent="1">
          <mxGeometry x="1610" y="718.75" width="280" height="51.25" as="geometry" />
        </mxCell>
        <mxCell id="6wFY-ZE3VeYy4Lx6V35n-176" value="" style="edgeStyle=orthogonalEdgeStyle;orthogonalLoop=1;jettySize=auto;html=1;spacing=4;spacingTop=1;strokeWidth=1;shadow=1;fillOpacity=100;strokeOpacity=100;arcSize=13;" edge="1" parent="1" source="6wFY-ZE3VeYy4Lx6V35n-173" target="6wFY-ZE3VeYy4Lx6V35n-175">
          <mxGeometry relative="1" as="geometry" />
        </mxCell>
        <mxCell id="6wFY-ZE3VeYy4Lx6V35n-173" value="doProcessConfigurationClass" style="whiteSpace=wrap;html=1;rounded=1;spacing=4;spacingTop=1;strokeWidth=1;shadow=1;fillOpacity=100;strokeOpacity=100;arcSize=13;" vertex="1" parent="1">
          <mxGeometry x="1610" y="855" width="280" height="30" as="geometry" />
        </mxCell>
        <mxCell id="6wFY-ZE3VeYy4Lx6V35n-177" style="edgeStyle=orthogonalEdgeStyle;orthogonalLoop=1;jettySize=auto;html=1;entryX=0;entryY=0.5;entryDx=0;entryDy=0;exitX=0;exitY=0.5;exitDx=0;exitDy=0;spacing=4;spacingTop=1;strokeWidth=1;shadow=1;fillOpacity=100;strokeOpacity=100;arcSize=13;" edge="1" parent="1" source="6wFY-ZE3VeYy4Lx6V35n-175" target="6wFY-ZE3VeYy4Lx6V35n-167">
          <mxGeometry relative="1" as="geometry" />
        </mxCell>
        <mxCell id="6wFY-ZE3VeYy4Lx6V35n-175" value="执行结束" style="whiteSpace=wrap;html=1;rounded=1;spacing=4;spacingTop=1;strokeWidth=1;shadow=1;fillOpacity=100;strokeOpacity=100;arcSize=13;" vertex="1" parent="1">
          <mxGeometry x="1610" y="920" width="280" height="30" as="geometry" />
        </mxCell>
        <mxCell id="6wFY-ZE3VeYy4Lx6V35n-184" style="edgeStyle=orthogonalEdgeStyle;orthogonalLoop=1;jettySize=auto;html=1;entryX=1;entryY=0.5;entryDx=0;entryDy=0;spacing=4;spacingTop=1;strokeWidth=1;shadow=1;fillOpacity=100;strokeOpacity=100;arcSize=13;" edge="1" parent="1" source="6wFY-ZE3VeYy4Lx6V35n-181" target="6wFY-ZE3VeYy4Lx6V35n-158">
          <mxGeometry relative="1" as="geometry" />
        </mxCell>
        <mxCell id="6wFY-ZE3VeYy4Lx6V35n-181" value="将 ImportBean 放入到Map中" style="whiteSpace=wrap;html=1;fillColor=#ffe6cc;strokeColor=#d79b00;rounded=1;spacing=4;spacingTop=1;strokeWidth=1;shadow=1;fillOpacity=100;strokeOpacity=100;arcSize=13;" vertex="1" parent="1">
          <mxGeometry x="1610" y="1010" width="280" height="30" as="geometry" />
        </mxCell>
        <mxCell id="6wFY-ZE3VeYy4Lx6V35n-190" style="edgeStyle=orthogonalEdgeStyle;orthogonalLoop=1;jettySize=auto;html=1;entryX=1;entryY=0.75;entryDx=0;entryDy=0;spacing=4;spacingTop=1;strokeWidth=1;shadow=1;fillOpacity=100;strokeOpacity=100;arcSize=13;" edge="1" parent="1" source="6wFY-ZE3VeYy4Lx6V35n-188" target="6wFY-ZE3VeYy4Lx6V35n-45">
          <mxGeometry relative="1" as="geometry" />
        </mxCell>
        <mxCell id="6wFY-ZE3VeYy4Lx6V35n-188" value="将ImportConfiguration放入到Map中" style="whiteSpace=wrap;html=1;fillColor=#ffe6cc;strokeColor=#d79b00;rounded=1;spacing=4;spacingTop=1;strokeWidth=1;shadow=1;fillOpacity=100;strokeOpacity=100;arcSize=13;" vertex="1" parent="1">
          <mxGeometry x="1190" y="1040" width="280" height="30" as="geometry" />
        </mxCell>
        <mxCell id="6wFY-ZE3VeYy4Lx6V35n-198" style="edgeStyle=orthogonalEdgeStyle;orthogonalLoop=1;jettySize=auto;html=1;entryX=1;entryY=0.75;entryDx=0;entryDy=0;spacing=4;spacingTop=1;strokeWidth=1;shadow=1;fillOpacity=100;strokeOpacity=100;arcSize=13;" edge="1" parent="1" source="6wFY-ZE3VeYy4Lx6V35n-194" target="6wFY-ZE3VeYy4Lx6V35n-91">
          <mxGeometry relative="1" as="geometry" />
        </mxCell>
        <mxCell id="6wFY-ZE3VeYy4Lx6V35n-194" value="将 ImportContext 放入到Map中" style="whiteSpace=wrap;html=1;fillColor=#ffe6cc;strokeColor=#d79b00;rounded=1;spacing=4;spacingTop=1;strokeWidth=1;shadow=1;fillOpacity=100;strokeOpacity=100;arcSize=13;" vertex="1" parent="1">
          <mxGeometry x="730" y="1100" width="280" height="30" as="geometry" />
        </mxCell>
        <mxCell id="6wFY-ZE3VeYy4Lx6V35n-200" value="注册 ImportBean&amp;nbsp;" style="whiteSpace=wrap;html=1;rounded=1;spacing=4;spacingTop=1;strokeWidth=1;fillColor=#ffe6cc;strokeColor=#d79b00;shadow=1;fillOpacity=100;strokeOpacity=100;arcSize=13;" vertex="1" parent="1">
          <mxGeometry x="240" y="1200" width="300" height="30" as="geometry" />
        </mxCell>
      </root>
    </mxGraphModel>
  </diagram>
</mxfile>
